<svg width="227" height="36" viewBox="0 0 227 36" fill="none" xmlns="http://www.w3.org/2000/svg">
<path d="M29.345 35.215L4.19 10.915L5.765 11.545L5.855 34H0.5V0.0699996H0.725L25.475 24.37L24.26 23.965L24.17 1.195H29.48V35.215H29.345ZM36.4438 17.62C36.4438 15.37 36.8788 13.24 37.7488 11.23C38.6188 9.19 39.8188 7.405 41.3488 5.875C42.8788 4.315 44.6488 3.085 46.6588 2.185C48.6988 1.285 50.8588 0.834998 53.1388 0.834998C55.4488 0.834998 57.6088 1.285 59.6188 2.185C61.6588 3.085 63.4588 4.315 65.0188 5.875C66.5788 7.405 67.7938 9.19 68.6638 11.23C69.5338 13.24 69.9688 15.37 69.9688 17.62C69.9688 19.96 69.5338 22.135 68.6638 24.145C67.7938 26.155 66.5788 27.94 65.0188 29.5C63.4588 31.03 61.6588 32.23 59.6188 33.1C57.6088 33.94 55.4488 34.36 53.1388 34.36C50.8588 34.36 48.6988 33.94 46.6588 33.1C44.6488 32.23 42.8788 31.045 41.3488 29.545C39.8188 28.015 38.6188 26.23 37.7488 24.19C36.8788 22.15 36.4438 19.96 36.4438 17.62ZM41.9338 17.665C41.9338 19.795 42.4288 21.745 43.4188 23.515C44.4388 25.255 45.8038 26.65 47.5138 27.7C49.2538 28.72 51.1888 29.23 53.3188 29.23C55.4188 29.23 57.3088 28.72 58.9888 27.7C60.6688 26.65 62.0038 25.255 62.9938 23.515C63.9838 21.745 64.4788 19.78 64.4788 17.62C64.4788 15.46 63.9688 13.495 62.9488 11.725C61.9588 9.955 60.6088 8.56 58.8988 7.54C57.1888 6.49 55.2838 5.965 53.1838 5.965C51.0838 5.965 49.1788 6.49 47.4688 7.54C45.7588 8.59 44.4088 10 43.4188 11.77C42.4288 13.54 41.9338 15.505 41.9338 17.665ZM74.9398 17.62C74.9398 15.37 75.3748 13.24 76.2448 11.23C77.1148 9.19 78.3148 7.405 79.8448 5.875C81.3748 4.315 83.1448 3.085 85.1548 2.185C87.1948 1.285 89.3548 0.834998 91.6348 0.834998C93.9448 0.834998 96.1048 1.285 98.1148 2.185C100.155 3.085 101.955 4.315 103.515 5.875C105.075 7.405 106.29 9.19 107.16 11.23C108.03 13.24 108.465 15.37 108.465 17.62C108.465 19.96 108.03 22.135 107.16 24.145C106.29 26.155 105.075 27.94 103.515 29.5C101.955 31.03 100.155 32.23 98.1148 33.1C96.1048 33.94 93.9448 34.36 91.6348 34.36C89.3548 34.36 87.1948 33.94 85.1548 33.1C83.1448 32.23 81.3748 31.045 79.8448 29.545C78.3148 28.015 77.1148 26.23 76.2448 24.19C75.3748 22.15 74.9398 19.96 74.9398 17.62ZM80.4298 17.665C80.4298 19.795 80.9248 21.745 81.9148 23.515C82.9348 25.255 84.2998 26.65 86.0098 27.7C87.7498 28.72 89.6848 29.23 91.8148 29.23C93.9148 29.23 95.8048 28.72 97.4848 27.7C99.1648 26.65 100.5 25.255 101.49 23.515C102.48 21.745 102.975 19.78 102.975 17.62C102.975 15.46 102.465 13.495 101.445 11.725C100.455 9.955 99.1048 8.56 97.3948 7.54C95.6848 6.49 93.7798 5.965 91.6798 5.965C89.5798 5.965 87.6748 6.49 85.9648 7.54C84.2548 8.59 82.9048 10 81.9148 11.77C80.9248 13.54 80.4298 15.505 80.4298 17.665ZM115.461 34V1.195H124.821C128.091 1.195 130.866 1.69 133.146 2.68C135.426 3.67 137.271 4.99 138.681 6.64C140.091 8.26 141.111 10.075 141.741 12.085C142.401 14.065 142.731 16.06 142.731 18.07C142.731 20.53 142.296 22.75 141.426 24.73C140.586 26.68 139.401 28.345 137.871 29.725C136.341 31.105 134.586 32.17 132.606 32.92C130.656 33.64 128.586 34 126.396 34H115.461ZM120.771 28.87H125.406C127.746 28.87 129.801 28.45 131.571 27.61C133.341 26.74 134.721 25.48 135.711 23.83C136.731 22.15 137.241 20.11 137.241 17.71C137.241 15.64 136.896 13.885 136.206 12.445C135.546 11.005 134.661 9.835 133.551 8.935C132.471 8.035 131.286 7.375 129.996 6.955C128.736 6.535 127.506 6.325 126.306 6.325H120.771V28.87ZM149.694 1.195H155.004V28.87H171.114V34H149.694V1.195ZM178.039 1.195H199.819V6.325H183.349V14.965H198.019V20.095H183.349V28.87H200.449V34H178.039V1.195ZM224.937 7.99C223.737 7.36 222.477 6.835 221.157 6.415C219.867 5.965 218.622 5.74 217.422 5.74C215.802 5.74 214.527 6.1 213.597 6.82C212.667 7.51 212.202 8.5 212.202 9.79C212.202 10.66 212.517 11.425 213.147 12.085C213.807 12.745 214.647 13.33 215.667 13.84C216.687 14.35 217.767 14.815 218.907 15.235C220.227 15.715 221.502 16.33 222.732 17.08C223.992 17.8 225.012 18.79 225.792 20.05C226.602 21.28 227.007 22.93 227.007 25C227.007 26.71 226.572 28.285 225.702 29.725C224.832 31.135 223.587 32.26 221.967 33.1C220.347 33.94 218.367 34.36 216.027 34.36C214.017 34.36 212.052 34.045 210.132 33.415C208.242 32.755 206.547 31.915 205.047 30.895L207.432 26.71C208.512 27.52 209.802 28.225 211.302 28.825C212.832 29.395 214.242 29.68 215.532 29.68C216.492 29.68 217.422 29.53 218.322 29.23C219.222 28.93 219.972 28.435 220.572 27.745C221.172 27.055 221.472 26.14 221.472 25C221.472 24.1 221.202 23.32 220.662 22.66C220.152 22 219.462 21.43 218.592 20.95C217.752 20.47 216.837 20.035 215.847 19.645C214.827 19.255 213.777 18.82 212.697 18.34C211.647 17.86 210.672 17.275 209.772 16.585C208.872 15.865 208.137 14.995 207.567 13.975C206.997 12.925 206.712 11.665 206.712 10.195C206.712 8.365 207.132 6.79 207.972 5.47C208.812 4.12 209.982 3.07 211.482 2.32C212.982 1.54 214.692 1.105 216.612 1.015C218.952 1.015 220.932 1.3 222.552 1.87C224.202 2.44 225.657 3.115 226.917 3.895L224.937 7.99Z" fill="#D6292B"/>
</svg>
